<?xml version="1.0" encoding="UTF-8"?>
<svg version="1.1" xmlns="http://www.w3.org/2000/svg" width="300" height="300">
<path d="M0 0 C99 0 198 0 300 0 C300 99 300 198 300 300 C201 300 102 300 0 300 C0 201 0 102 0 0 Z " fill="#0C0621" transform="translate(0,0)"/>
<path d="M0 0 C0 0.66 0 1.32 0 2 C0.73605469 2.10183594 1.47210938 2.20367187 2.23046875 2.30859375 C10.40732121 4.34992363 18.85670435 13.39527598 23.50390625 20.203125 C30.36630417 32.57592602 31.79238376 47.37557612 28.09765625 60.8828125 C23.41641545 74.17687002 15.03755732 83.35612793 2.5625 89.5 C0.05335519 90.69556214 -2.46812605 91.85260741 -5 93 C-5.99 93.495 -5.99 93.495 -7 94 C-10.32682799 94.2685551 -13.66355624 94.23169304 -17 94.25 C-17.90878906 94.270625 -18.81757813 94.29125 -19.75390625 94.3125 C-28.366588 94.3615053 -36.04196331 92.67755164 -43.375 88 C-44.16648438 87.505 -44.95796875 87.01 -45.7734375 86.5 C-50.16657044 83.5404157 -50.16657044 83.5404157 -52 82 C-52 81.34 -52 80.68 -52 80 C-49.03 80 -46.06 80 -43 80 C-43 79.34 -43 78.68 -43 78 C-47.10498209 78.08071719 -51.20846109 78.19357487 -55.3125 78.3125 C-56.47974609 78.33505859 -57.64699219 78.35761719 -58.84960938 78.38085938 C-59.96787109 78.41630859 -61.08613281 78.45175781 -62.23828125 78.48828125 C-63.7857605 78.52755737 -63.7857605 78.52755737 -65.36450195 78.56762695 C-68.3620285 79.05939347 -69.06790103 79.76511212 -71 82 C-73.5 82.5 -73.5 82.5 -76 82 C-77.81883009 79.6167054 -79 78.04181663 -79 75 C-79.9075 75.061875 -80.815 75.12375 -81.75 75.1875 C-85.29238832 74.98313144 -86.52653696 74.47346304 -89 72 C-89 71.34 -89 70.68 -89 70 C-88.40873322 70.14210907 -87.81746643 70.28421814 -87.20828247 70.43063354 C-80.63779725 71.89222687 -74.45743496 72.2663026 -67.7421875 72.1953125 C-66.71312286 72.1924826 -65.68405823 72.18965271 -64.62380981 72.18673706 C-61.37408244 72.17564479 -58.12464246 72.15056115 -54.875 72.125 C-52.65625401 72.11495603 -50.43750366 72.10583267 -48.21875 72.09765625 C-42.81240385 72.07574149 -37.40622247 72.04237499 -32 72 C-32 71.34 -32 70.68 -32 70 C-32.58136215 70.00666183 -33.1627243 70.01332367 -33.76170349 70.02018738 C-39.84555497 70.08686918 -45.9293016 70.13193617 -52.01342773 70.16479492 C-54.28007224 70.17982508 -56.54668794 70.20025482 -58.81323242 70.22631836 C-62.08259213 70.26295588 -65.35156527 70.2797846 -68.62109375 70.29296875 C-69.62458359 70.30845261 -70.62807343 70.32393646 -71.66197205 70.33988953 C-77.9185758 70.34136581 -83.25048272 69.56568925 -89 67 C-90 66 -90 66 -90.09765625 64.15234375 C-90.06510417 62.1015625 -90.03255208 60.05078125 -90 58 C-88.02 58.66 -86.04 59.32 -84 60 C-84.33 58.02 -84.66 56.04 -85 54 C-85.99 53.67 -86.98 53.34 -88 53 C-87.44425749 49.34299449 -87.44425749 49.34299449 -85.48120117 47.82739258 C-84.52177612 47.36562622 -84.52177612 47.36562622 -83.54296875 46.89453125 C-82.49206055 46.37922852 -82.49206055 46.37922852 -81.41992188 45.85351562 C-80.31487305 45.33821289 -80.31487305 45.33821289 -79.1875 44.8125 C-78.46240234 44.45736328 -77.73730469 44.10222656 -76.99023438 43.73632812 C-73.67664046 42.13864835 -70.60256305 40.8055141 -67 40 C-66.92523438 39.41734375 -66.85046875 38.8346875 -66.7734375 38.234375 C-64.6604316 25.05916176 -57.91677721 14.11057915 -47.36328125 5.96484375 C-33.17226914 -3.57005882 -16.18520956 -6.83194776 0 0 Z " fill="#0F0E29" transform="translate(180,70)"/>
<path d="M0 0 C0.69402882 17.83911125 0.69402882 17.83911125 -3 24 C-6.01805951 25.70108809 -7.72139405 26.33079088 -11 27 C-13.14773958 27.4917473 -15.29352692 27.99208257 -17.4375 28.5 C-18.46746094 28.7165625 -19.49742187 28.933125 -20.55859375 29.15625 C-21.36425781 29.4346875 -22.16992188 29.713125 -23 30 C-23.495 31.485 -23.495 31.485 -24 33 C-25.65 33.33 -27.3 33.66 -29 34 C-29.05607422 32.57107422 -29.05607422 32.57107422 -29.11328125 31.11328125 C-29.17902344 29.85902344 -29.24476563 28.60476562 -29.3125 27.3125 C-29.37050781 26.07113281 -29.42851562 24.82976562 -29.48828125 23.55078125 C-30.01366675 19.90516735 -30.74842639 17.88788789 -33 15 C-35.54327108 14.33314062 -35.54327108 14.33314062 -38 15 C-38.66 15.99 -39.32 16.98 -40 18 C-38.515 18.495 -38.515 18.495 -37 19 C-37.66 19.7425 -38.32 20.485 -39 21.25 C-42.18347579 25.94084595 -41.47790015 31.57074087 -41 37 C-40.67 37.99 -40.34 38.98 -40 40 C-38.35 40.33 -36.7 40.66 -35 41 C-35.66 42.32 -36.32 43.64 -37 45 C-40.38102922 45.29035556 -43.62822839 45.4386474 -47 45 C-49.625 42.625 -49.625 42.625 -51 40 C-51 39.34 -51 38.68 -51 38 C-63.54 38 -76.08 38 -89 38 C-89.66 39.32 -90.32 40.64 -91 42 C-92 43 -92 43 -94.375 43.375 C-97 43 -97 43 -98.8125 40.625 C-100 38 -100 38 -100 36 C-100.9075 36.061875 -101.815 36.12375 -102.75 36.1875 C-106.29238832 35.98313144 -107.52653696 35.47346304 -110 33 C-110 32.34 -110 31.68 -110 31 C-109.11309982 31.2131636 -109.11309982 31.2131636 -108.20828247 31.43063354 C-101.63779725 32.89222687 -95.45743496 33.2663026 -88.7421875 33.1953125 C-87.71312286 33.1924826 -86.68405823 33.18965271 -85.62380981 33.18673706 C-82.37408244 33.17564479 -79.12464246 33.15056115 -75.875 33.125 C-73.65625401 33.11495603 -71.43750366 33.10583267 -69.21875 33.09765625 C-63.81240385 33.07574149 -58.40622247 33.04237499 -53 33 C-53 32.34 -53 31.68 -53 31 C-53.58136215 31.00666183 -54.1627243 31.01332367 -54.76170349 31.02018738 C-60.84555497 31.08686918 -66.9293016 31.13193617 -73.01342773 31.16479492 C-75.28007224 31.17982508 -77.54668794 31.20025482 -79.81323242 31.22631836 C-83.08259213 31.26295588 -86.35156527 31.2797846 -89.62109375 31.29296875 C-90.62458359 31.30845261 -91.62807343 31.32393646 -92.66197205 31.33988953 C-98.9185758 31.34136581 -104.25048272 30.56568925 -110 28 C-111 27 -111 27 -111.09765625 25.15234375 C-111.06510417 23.1015625 -111.03255208 21.05078125 -111 19 C-109.02 19.66 -107.04 20.32 -105 21 C-105.33 19.02 -105.66 17.04 -106 15 C-99.35590042 14.78567421 -93.46794133 15.48766299 -87 17 C-87 17.33 -87 17.66 -87 18 C-91.62 18 -96.24 18 -101 18 C-101 18.66 -101 19.32 -101 20 C-98.75006641 20.02707139 -96.50003905 20.04642829 -94.25 20.0625 C-92.37054688 20.07990234 -92.37054688 20.07990234 -90.453125 20.09765625 C-86.62714196 19.9999812 -86.62714196 19.9999812 -83 19 C-82.67 18.34 -82.34 17.68 -82 17 C-78.7 17 -75.4 17 -72 17 C-72.66 17.99 -73.32 18.98 -74 20 C-74.66 20 -75.32 20 -76 20 C-76 20.66 -76 21.32 -76 22 C-73.77027727 21.88534579 -71.54121247 21.75785234 -69.3125 21.625 C-68.07113281 21.55539063 -66.82976562 21.48578125 -65.55078125 21.4140625 C-62.26668518 21.0310986 -59.91646948 20.52163625 -57 19 C-55.17380913 16.48635244 -55.17380913 16.48635244 -54 14 C-54.99 13.67 -55.98 13.34 -57 13 C-51.7265625 9.77734375 -51.7265625 9.77734375 -50 9 C-49.34 9.33 -48.68 9.66 -48 10 C-48.66 10.763125 -49.32 11.52625 -50 12.3125 C-52.29850538 14.84277939 -52.29850538 14.84277939 -52 18 C-51.484375 17.0925 -50.96875 16.185 -50.4375 15.25 C-48.30991318 11.50544719 -44.88396051 9.58295003 -41 8 C-36.62322873 6.89492833 -32.20389471 6.16034521 -27.75 5.4375 C-20.10940221 4.15560569 -12.64894059 2.78173625 -5.21582031 0.57055664 C-3 0 -3 0 0 0 Z " fill="#F4F4F5" transform="translate(201,109)"/>
<path d="M0 0 C0.84806213 -0.00287018 1.69612427 -0.00574036 2.56988525 -0.00869751 C4.35486523 -0.01072743 6.13986801 -0.00527305 7.92480469 0.00732422 C10.61966247 0.02331313 13.31300232 0.00748066 16.0078125 -0.01171875 C28.18092396 -0.02683914 39.43203749 0.50527755 49.890625 7.3984375 C49.890625 8.0584375 49.890625 8.7184375 49.890625 9.3984375 C43.890625 8.3984375 43.890625 8.3984375 41.140625 7.8359375 C32.16544321 6.54625996 32.16544321 6.54625996 23.890625 9.3984375 C22.59830858 12.44043222 22.59830858 12.44043222 21.890625 15.3984375 C22.550625 15.3984375 23.210625 15.3984375 23.890625 15.3984375 C24.550625 14.0784375 25.210625 12.7584375 25.890625 11.3984375 C28.860625 11.3984375 31.830625 11.3984375 34.890625 11.3984375 C35.385625 13.3784375 35.385625 13.3784375 35.890625 15.3984375 C36.63828125 15.181875 37.3859375 14.9653125 38.15625 14.7421875 C39.14109375 14.46375 40.1259375 14.1853125 41.140625 13.8984375 C42.11515625 13.62 43.0896875 13.3415625 44.09375 13.0546875 C46.890625 12.3984375 46.890625 12.3984375 50.890625 12.3984375 C51.385625 14.3784375 51.385625 14.3784375 51.890625 16.3984375 C40.9786872 19.40585978 30.17451124 22.37946422 18.953125 23.9609375 C12.81655759 24.86232764 7.42747759 25.8878855 2.890625 30.3984375 C0.89744857 33.01451471 0.89744857 33.01451471 -0.109375 35.3984375 C-0.859375 33.7109375 -0.859375 33.7109375 -1.109375 31.3984375 C0.828125 28.6484375 0.828125 28.6484375 2.890625 26.3984375 C0.580625 27.3884375 -1.729375 28.3784375 -4.109375 29.3984375 C-3.449375 29.7284375 -2.789375 30.0584375 -2.109375 30.3984375 C-2.67086857 33.65510022 -3.48167486 35.35467073 -6.109375 37.3984375 C-9.81051894 38.69340039 -13.47471113 38.49690661 -17.359375 38.4609375 C-18.62265625 38.45191406 -19.8859375 38.44289062 -21.1875 38.43359375 C-22.15171875 38.42199219 -23.1159375 38.41039062 -24.109375 38.3984375 C-24.109375 37.7384375 -24.109375 37.0784375 -24.109375 36.3984375 C-23.119375 35.7384375 -22.129375 35.0784375 -21.109375 34.3984375 C-24.079375 34.0684375 -27.049375 33.7384375 -30.109375 33.3984375 C-30.439375 34.3884375 -30.769375 35.3784375 -31.109375 36.3984375 C-34.21615706 37.6298272 -37.36387903 37.53243885 -40.671875 37.5234375 C-41.62191406 37.52601563 -42.57195312 37.52859375 -43.55078125 37.53125 C-46.109375 37.3984375 -46.109375 37.3984375 -49.109375 36.3984375 C-49.109375 35.7384375 -49.109375 35.0784375 -49.109375 34.3984375 C-46.469375 34.0684375 -43.829375 33.7384375 -41.109375 33.3984375 C-46.059375 32.7384375 -51.009375 32.0784375 -56.109375 31.3984375 C-56.439375 30.4084375 -56.769375 29.4184375 -57.109375 28.3984375 C-55.04541869 26.16380788 -53.14616448 24.7327382 -50.421875 23.390625 C-49.72320312 23.04386719 -49.02453125 22.69710937 -48.3046875 22.33984375 C-47.58023438 21.98792969 -46.85578125 21.63601562 -46.109375 21.2734375 C-45.38492188 20.91378906 -44.66046875 20.55414063 -43.9140625 20.18359375 C-39.18094415 17.85196534 -35.45182325 16.27166602 -30.0871582 16.28491211 C-29.06632645 16.28498764 -28.04549469 16.28506317 -26.99372864 16.28514099 C-25.89364975 16.29030228 -24.79357086 16.29546356 -23.66015625 16.30078125 C-22.5324028 16.3021962 -21.40464935 16.30361115 -20.24272156 16.30506897 C-16.63574588 16.3106728 -13.02883196 16.32322597 -9.421875 16.3359375 C-6.97851652 16.34095201 -4.53515707 16.345515 -2.09179688 16.34960938 C3.90236759 16.36064347 9.89648582 16.37791071 15.890625 16.3984375 C17.870625 12.7684375 19.850625 9.1384375 21.890625 5.3984375 C20.27837036 5.44387695 20.27837036 5.44387695 18.63354492 5.49023438 C14.64722859 5.60247329 10.660897 5.71416176 6.67456055 5.82568359 C4.94897039 5.87403581 3.22338441 5.92253748 1.49780273 5.97119141 C-0.98192275 6.04108301 -3.46166276 6.11043786 -5.94140625 6.1796875 C-6.71337845 6.20156128 -7.48535065 6.22343506 -8.28071594 6.24597168 C-11.22477864 6.32777692 -14.16400565 6.3984375 -17.109375 6.3984375 C-19.1454632 7.67598304 -21.15046619 9.00543568 -23.109375 10.3984375 C-23.769375 10.0684375 -24.429375 9.7384375 -25.109375 9.3984375 C-23.95307527 8.44818054 -22.78356413 7.51399852 -21.609375 6.5859375 C-20.9596875 6.06386719 -20.31 5.54179688 -19.640625 5.00390625 C-13.23875354 0.94346 -7.40687497 -0.05650598 0 0 Z " fill="#130D27" transform="translate(149.109375,92.6015625)"/>
<path d="M0 0 C0 0.66 0 1.32 0 2 C0.73605469 2.10183594 1.47210938 2.20367187 2.23046875 2.30859375 C10.40732121 4.34992363 18.85670435 13.39527598 23.50390625 20.203125 C30.36630417 32.57592602 31.79238376 47.37557612 28.09765625 60.8828125 C23.41641545 74.17687002 15.03755732 83.35612793 2.5625 89.5 C0.05335519 90.69556214 -2.46812605 91.85260741 -5 93 C-5.99 93.495 -5.99 93.495 -7 94 C-10.32682799 94.2685551 -13.66355624 94.23169304 -17 94.25 C-17.90878906 94.270625 -18.81757813 94.29125 -19.75390625 94.3125 C-28.366588 94.3615053 -36.04196331 92.67755164 -43.375 88 C-44.16648438 87.505 -44.95796875 87.01 -45.7734375 86.5 C-50.16657044 83.5404157 -50.16657044 83.5404157 -52 82 C-52 81.34 -52 80.68 -52 80 C-43.03807615 79.48296593 -43.03807615 79.48296593 -39 83 C-27.97785754 88.19406271 -14.28904281 88.78076554 -2.6953125 85.1640625 C8.52441936 80.31843918 16.75962975 71.35162442 21.2890625 60.10546875 C22.33041341 57.02146797 22.77934814 54.25461487 23 51 C23.06316406 50.12730469 23.12632812 49.25460938 23.19140625 48.35546875 C23.65882403 36.85096027 20.65999831 26.7019772 13.54296875 17.58203125 C6.39995432 10.32929309 -2.8980468 4.59401331 -13.17578125 3.734375 C-26.38916274 3.80019508 -38.24999554 5.9237872 -48.34375 15.13671875 C-52.81882473 20.17117782 -56.01384867 26.22266543 -59.3125 32.0625 C-61 35 -61 35 -63 37 C-63.99 37 -64.98 37 -66 37 C-65.52702953 26.59464962 -59.5073289 17.58679381 -52.48046875 10.25390625 C-38.13574809 -2.78058796 -18.24817722 -7.70274817 0 0 Z " fill="#03C2DE" transform="translate(180,70)"/>
<path d="M0 0 C4.69132086 4.69132086 5.20650992 12.76559531 5.3125 19.125 C4.89127009 32.7447671 -0.03545547 43.59404658 -10 53 C-19.73688082 61.18255306 -30.56327834 62.88170788 -43 62 C-49.18641745 61.2922319 -56.01524992 59.98259406 -61 56 C-61.33 54.68 -61.66 53.36 -62 52 C-70.25 52 -78.5 52 -87 52 C-87 51.67 -87 51.34 -87 51 C-81.66158219 50.85158376 -76.32436658 50.7427547 -70.984375 50.67041016 C-69.16840701 50.64025212 -67.35258451 50.59931802 -65.53710938 50.54736328 C-62.92541645 50.47449876 -60.31564942 50.44053633 -57.703125 50.4140625 C-56.89256653 50.38309479 -56.08200806 50.35212708 -55.24688721 50.32022095 C-53.00683661 50.31888607 -51.15112318 50.37028571 -49 51 C-46.61279297 53.9934082 -46.61279297 53.9934082 -45 57 C-42.50420682 57.82881023 -42.50420682 57.82881023 -39.875 57.5625 C-39.00617188 57.54316406 -38.13734375 57.52382812 -37.2421875 57.50390625 C-34.62615939 57.18692644 -34.62615939 57.18692644 -33 54 C-34.65 54 -36.3 54 -38 54 C-40.97949686 49.01828125 -40.64518856 43.62664443 -40 38 C-38.93072333 35.48022628 -37.83914297 34.06903584 -36 32 C-36.99 32 -37.98 32 -39 32 C-37.125 28.125 -37.125 28.125 -36 27 C-33.6875 26.5625 -33.6875 26.5625 -31 27 C-27.63887066 30.08860534 -27.07462327 31.93395322 -26.75390625 36.515625 C-26.7503598 40.01951852 -26.82742987 43.50066132 -27 47 C-23.45167402 45.79216674 -23.45167402 45.79216674 -20.57617188 43.49047852 C-18.72388961 41.73890119 -17.57303406 41.44106208 -15.09375 40.96484375 C-6.92996239 39.46266785 -6.92996239 39.46266785 -0.21484375 35.0859375 C0.74663584 32.27397207 0.93538674 29.98297903 1 27 C1.02223633 26.26797363 1.04447266 25.53594727 1.06738281 24.78173828 C1.20900624 19.51313539 1.15493224 14.26769612 1 9 C0.16855469 9.2165625 -0.66289062 9.433125 -1.51953125 9.65625 C-2.60621094 9.9346875 -3.69289063 10.213125 -4.8125 10.5 C-5.89144531 10.7784375 -6.97039062 11.056875 -8.08203125 11.34375 C-11 12 -11 12 -14 12 C-14.495 10.515 -14.495 10.515 -15 9 C-16.45742463 8.91903197 -17.91612807 8.86082226 -19.375 8.8125 C-20.59316406 8.76029297 -20.59316406 8.76029297 -21.8359375 8.70703125 C-22.55007812 8.80371094 -23.26421875 8.90039062 -24 9 C-24.66 9.99 -25.32 10.98 -26 12 C-26.66 12 -27.32 12 -28 12 C-27.76774367 8.51615511 -27.62008825 6.6000854 -25.0625 4.125 C-16.68035028 1.04584296 -8.27448394 3.61148917 0 6 C-0.495 4.515 -0.495 4.515 -1 3 C-0.67 2.01 -0.34 1.02 0 0 Z " fill="#15122C" transform="translate(199,96)"/>
<path d="M0 0 C0.84806213 -0.00287018 1.69612427 -0.00574036 2.56988525 -0.00869751 C4.35486523 -0.01072743 6.13986801 -0.00527305 7.92480469 0.00732422 C10.61966247 0.02331313 13.31300232 0.00748066 16.0078125 -0.01171875 C28.18092396 -0.02683914 39.43203749 0.50527755 49.890625 7.3984375 C49.890625 8.0584375 49.890625 8.7184375 49.890625 9.3984375 C43.890625 8.3984375 43.890625 8.3984375 41.140625 7.8359375 C32.16544321 6.54625996 32.16544321 6.54625996 23.890625 9.3984375 C22.59830858 12.44043222 22.59830858 12.44043222 21.890625 15.3984375 C22.550625 15.3984375 23.210625 15.3984375 23.890625 15.3984375 C24.550625 14.0784375 25.210625 12.7584375 25.890625 11.3984375 C28.860625 11.3984375 31.830625 11.3984375 34.890625 11.3984375 C35.385625 13.3784375 35.385625 13.3784375 35.890625 15.3984375 C36.63828125 15.181875 37.3859375 14.9653125 38.15625 14.7421875 C39.14109375 14.46375 40.1259375 14.1853125 41.140625 13.8984375 C42.11515625 13.62 43.0896875 13.3415625 44.09375 13.0546875 C46.890625 12.3984375 46.890625 12.3984375 50.890625 12.3984375 C50.890625 13.0584375 50.890625 13.7184375 50.890625 14.3984375 C44.63174075 16.70553414 38.55100382 18.15213099 31.953125 19.0859375 C31.12361328 19.21548828 30.29410156 19.34503906 29.43945312 19.47851562 C21.07537487 20.70680684 13.24761929 20.6921191 4.890625 19.3984375 C-5.0293178 18.57500698 -15.03378852 18.29903087 -24.984375 18.1484375 C-25.71438721 18.1270874 -26.44439941 18.1057373 -27.1965332 18.08374023 C-31.98598281 18.0530064 -34.98759069 19.03513183 -39.109375 21.3984375 C-41.14238163 22.29337426 -43.18412972 23.16873167 -45.234375 24.0234375 C-46.24757813 24.44882813 -47.26078125 24.87421875 -48.3046875 25.3125 C-50.58007997 26.19350154 -52.73032073 26.88620093 -55.109375 27.3984375 C-52.39941377 24.15046926 -48.84111792 22.57813285 -45.109375 20.7734375 C-44.4803125 20.46148437 -43.85125 20.14953125 -43.203125 19.828125 C-38.63199956 17.58130063 -35.17416441 16.2723516 -30.0871582 16.28491211 C-29.06632645 16.28498764 -28.04549469 16.28506317 -26.99372864 16.28514099 C-25.89364975 16.29030228 -24.79357086 16.29546356 -23.66015625 16.30078125 C-22.5324028 16.3021962 -21.40464935 16.30361115 -20.24272156 16.30506897 C-16.63574588 16.3106728 -13.02883196 16.32322597 -9.421875 16.3359375 C-6.97851652 16.34095201 -4.53515707 16.345515 -2.09179688 16.34960938 C3.90236759 16.36064347 9.89648582 16.37791071 15.890625 16.3984375 C17.870625 12.7684375 19.850625 9.1384375 21.890625 5.3984375 C20.27837036 5.44387695 20.27837036 5.44387695 18.63354492 5.49023438 C14.64722859 5.60247329 10.660897 5.71416176 6.67456055 5.82568359 C4.94897039 5.87403581 3.22338441 5.92253748 1.49780273 5.97119141 C-0.98192275 6.04108301 -3.46166276 6.11043786 -5.94140625 6.1796875 C-6.71337845 6.20156128 -7.48535065 6.22343506 -8.28071594 6.24597168 C-11.22477864 6.32777692 -14.16400565 6.3984375 -17.109375 6.3984375 C-19.1454632 7.67598304 -21.15046619 9.00543568 -23.109375 10.3984375 C-23.769375 10.0684375 -24.429375 9.7384375 -25.109375 9.3984375 C-23.95307527 8.44818054 -22.78356413 7.51399852 -21.609375 6.5859375 C-20.9596875 6.06386719 -20.31 5.54179688 -19.640625 5.00390625 C-13.23875354 0.94346 -7.40687497 -0.05650598 0 0 Z " fill="#D0CFD4" transform="translate(149.109375,92.6015625)"/>
<path d="M0 0 C3.55742653 0.69105465 6.96502794 0.57361797 10.5637207 0.43383789 C11.28911545 0.4102269 12.01451019 0.38661591 12.7618866 0.36228943 C15.06454241 0.28609844 17.36682334 0.20188461 19.66918945 0.11743164 C21.23622878 0.06416623 22.80328607 0.01142618 24.37036133 -0.04077148 C28.19937194 -0.16945578 32.02806686 -0.30533298 35.85668945 -0.44506836 C35.27315341 1.25249104 34.57618128 2.91037889 33.85668945 4.55493164 C33.58311111 5.24325073 33.30953278 5.93156982 33.02766418 6.64074707 C31.85725406 9.05794739 30.82427848 10.71583946 28.85668945 12.55493164 C24.89871571 13.67509527 21.07907624 13.48793931 16.9934082 13.33618164 C15.27272881 13.31920227 15.27272881 13.31920227 13.51728821 13.30187988 C9.85788082 13.25713993 6.20240978 13.15676904 2.54418945 13.05493164 C0.06182421 13.01480215 -2.42060252 12.97830047 -4.90307617 12.94555664 C-10.98449449 12.85741225 -17.06362137 12.72359544 -23.14331055 12.55493164 C-23.14331055 11.56493164 -23.14331055 10.57493164 -23.14331055 9.55493164 C-19.77233671 8.05672105 -17.93888936 7.55493164 -14.14331055 7.55493164 C-11.55997584 6.07054777 -11.55997584 6.07054777 -9.01831055 4.11743164 C-2.65987915 -0.55233622 -2.65987915 -0.55233622 0 0 Z " fill="#110C27" transform="translate(136.143310546875,97.445068359375)"/>
<path d="M0 0 C2.97 0 5.94 0 9 0 C8.34 1.32 7.68 2.64 7 4 C7.61999315 6.42141503 7.61999315 6.42141503 8.875 8.75 C9.57625 10.1525 10.2775 11.555 11 13 C12.32 9.04 13.64 5.08 15 1 C14.34 0.67 13.68 0.34 13 0 C20.59 0 28.18 0 36 0 C36 1.65 36 3.3 36 5 C35.01 5 34.02 5 33 5 C33 4.01 33 3.02 33 2 C31.02 2 29.04 2 27 2 C27 4.31 27 6.62 27 9 C29.31 9 31.62 9 34 9 C34 9.66 34 10.32 34 11 C31.69 11 29.38 11 27 11 C27 13.64 27 16.28 27 19 C29.31 19 31.62 19 34 19 C34 18.01 34 17.02 34 16 C34.99 16 35.98 16 37 16 C37 17.65 37 19.3 37 21 C31.72 21 26.44 21 21 21 C21.33 20.34 21.66 19.68 22 19 C22.07194869 16.11629667 22.09291708 13.25760336 22.0625 10.375 C22.05798828 9.57320312 22.05347656 8.77140625 22.04882812 7.9453125 C22.03703168 5.96350994 22.01909605 3.98174567 22 2 C20.03655607 2.18913843 20.03655607 2.18913843 18 3 C16.89898891 4.78614152 16.89898891 4.78614152 16.296875 7.03515625 C16.0390625 7.84404297 15.78125 8.65292969 15.515625 9.48632812 C15.26296875 10.33646484 15.0103125 11.18660156 14.75 12.0625 C14.481875 12.91650391 14.21375 13.77050781 13.9375 14.65039062 C13.27664352 16.76277116 12.6316621 18.87874196 12 21 C10.07470703 20.66137695 10.07470703 20.66137695 8 20 C6.8046875 17.41796875 6.8046875 17.41796875 5.875 14.1875 C4.63813294 9.8921112 4.63813294 9.8921112 2.8828125 5.80078125 C2 4 2 4 2 1 C1.34 0.67 0.68 0.34 0 0 Z " fill="#E6E5E8" transform="translate(137,179)"/>
<path d="M0 0 C2.97 0 5.94 0 9 0 C9.495 1.98 9.495 1.98 10 4 C10.74765625 3.7834375 11.4953125 3.566875 12.265625 3.34375 C13.25046875 3.0653125 14.2353125 2.786875 15.25 2.5 C16.22453125 2.2215625 17.1990625 1.943125 18.203125 1.65625 C21 1 21 1 25 1 C25 1.66 25 2.32 25 3 C18.74111575 5.30709664 12.66037882 6.75369349 6.0625 7.6875 C5.23298828 7.81705078 4.40347656 7.94660156 3.54882812 8.08007812 C-4.81525013 9.30836934 -12.64300571 9.2936816 -21 8 C-30.9199428 7.17656948 -40.92441352 6.90059337 -50.875 6.75 C-51.60501221 6.7286499 -52.33502441 6.7072998 -53.0871582 6.68530273 C-57.87660781 6.6545689 -60.87821569 7.63669433 -65 10 C-67.03300663 10.89493676 -69.07475472 11.77029417 -71.125 12.625 C-72.64480469 13.26308594 -72.64480469 13.26308594 -74.1953125 13.9140625 C-76.47070497 14.79506404 -78.62094573 15.48776343 -81 16 C-78.29003877 12.75203176 -74.73174292 11.17969535 -71 9.375 C-70.3709375 9.06304687 -69.741875 8.75109375 -69.09375 8.4296875 C-64.54264069 6.19270157 -61.12360891 4.86951406 -56.05712891 4.93408203 C-55.05243561 4.94384064 -54.04774231 4.95359924 -53.01260376 4.96365356 C-51.92821014 4.97822601 -50.84381653 4.99279846 -49.7265625 5.0078125 C-47.43490027 5.0253301 -45.14323332 5.04223826 -42.8515625 5.05859375 C-39.23489379 5.08956006 -35.61845985 5.12508374 -32.00195312 5.17138672 C-28.51429301 5.21372193 -25.02690937 5.23716729 -21.5390625 5.2578125 C-19.91854477 5.28574387 -19.91854477 5.28574387 -18.26528931 5.3142395 C-11.12938158 5.41516433 -11.12938158 5.41516433 -5 2 C-5 2.66 -5 3.32 -5 4 C-4.01 4 -3.02 4 -2 4 C-1.34 2.68 -0.68 1.36 0 0 Z " fill="#F3F3F4" transform="translate(175,104)"/>
<path d="M0 0 C2.10388569 -0.05402274 4.20816714 -0.09280256 6.3125 -0.125 C8.07013672 -0.15980469 8.07013672 -0.15980469 9.86328125 -0.1953125 C13 0 13 0 16 2 C16.3125 5 16.3125 5 16 8 C15.34 8.66 14.68 9.32 14 10 C14.25002573 14.50046315 16.41754304 17.41788227 19 21 C16.8125 21.5 16.8125 21.5 14 21 C12.4610868 19.04575512 11.29691519 17.03371633 10.11328125 14.84765625 C9.12923023 12.84157239 9.12923023 12.84157239 7 12 C7 14.64 7 17.28 7 20 C7.66 20.33 8.32 20.66 9 21 C6.36 21 3.72 21 1 21 C1.33 20.34 1.66 19.68 2 19 C2.12432618 16.15495432 2.1851641 13.34512848 2.1875 10.5 C2.19974609 9.71496094 2.21199219 8.92992187 2.22460938 8.12109375 C2.22986254 6.07936274 2.1222018 4.03807749 2 2 C1.34 1.34 0.68 0.68 0 0 Z " fill="#F3F2F4" transform="translate(175,179)"/>
<path d="M0 0 C1.93719378 -0.05406122 3.87481921 -0.09282025 5.8125 -0.125 C6.89144531 -0.14820313 7.97039062 -0.17140625 9.08203125 -0.1953125 C12 0 12 0 15 2 C15.1875 5.625 15.1875 5.625 15 9 C14.01 9.33 13.02 9.66 12 10 C12.34933594 10.62648437 12.69867188 11.25296875 13.05859375 11.8984375 C13.51363281 12.71570313 13.96867187 13.53296875 14.4375 14.375 C15.11619141 15.59316406 15.11619141 15.59316406 15.80859375 16.8359375 C16.5650536 18.20996622 17.29854631 19.59709261 18 21 C15.8125 21.5 15.8125 21.5 13 21 C11.4610868 19.04575512 10.29691519 17.03371633 9.11328125 14.84765625 C8.12923023 12.84157239 8.12923023 12.84157239 6 12 C6.48484276 16.64586892 6.48484276 16.64586892 8 21 C5.36 21 2.72 21 0 21 C0.66 20.67 1.32 20.34 2 20 C1.85953745 17.04132082 1.71287776 14.08317736 1.5625 11.125 C1.52318359 10.28324219 1.48386719 9.44148437 1.44335938 8.57421875 C1.40146484 7.76855469 1.35957031 6.96289062 1.31640625 6.1328125 C1.26141968 5.01737061 1.26141968 5.01737061 1.20532227 3.87939453 C1.10044135 1.91135688 1.10044135 1.91135688 0 0 Z " fill="#E9E8EB" transform="translate(112,179)"/>
<path d="M0 0 C-0.56149357 3.25666272 -1.37229986 4.95623323 -4 7 C-7.70114394 8.29496289 -11.36533613 8.09846911 -15.25 8.0625 C-16.51328125 8.05347656 -17.7765625 8.04445312 -19.078125 8.03515625 C-20.04234375 8.02355469 -21.0065625 8.01195312 -22 8 C-22 7.34 -22 6.68 -22 6 C-21.01 5.34 -20.02 4.68 -19 4 C-21.97 3.67 -24.94 3.34 -28 3 C-28.33 3.99 -28.66 4.98 -29 6 C-32.10678206 7.2313897 -35.25450403 7.13400135 -38.5625 7.125 C-39.51253906 7.12757813 -40.46257812 7.13015625 -41.44140625 7.1328125 C-44 7 -44 7 -47 6 C-47 5.34 -47 4.68 -47 4 C-44.36 3.67 -41.72 3.34 -39 3 C-39 2.67 -39 2.34 -39 2 C-38.15574463 1.970271 -38.15574463 1.970271 -37.29443359 1.93994141 C-26.9911831 1.55989487 -16.88256845 1.10406666 -6.71484375 -0.6953125 C-4.10903043 -0.98776349 -2.45843342 -0.83716438 0 0 Z " fill="#7F7C8A" transform="translate(147,123)"/>
<path d="M0 0 C1.32 0 2.64 0 4 0 C4.17128418 0.52956299 4.34256836 1.05912598 4.51904297 1.60473633 C5.29961116 4.00889688 6.08722189 6.41069278 6.875 8.8125 C7.14441406 9.64587891 7.41382812 10.47925781 7.69140625 11.33789062 C7.95566406 12.14033203 8.21992187 12.94277344 8.4921875 13.76953125 C8.85352783 14.87711792 8.85352783 14.87711792 9.22216797 16.00708008 C10.02070642 18.26312595 10.02070642 18.26312595 12 21 C9.36 21 6.72 21 4 21 C4 20.34 4 19.68 4 19 C4.66 19 5.32 19 6 19 C5.67 17.35 5.34 15.7 5 14 C2.36 14 -0.28 14 -3 14 C-3 15.98 -3 17.96 -3 20 C-2.34 20.33 -1.68 20.66 -1 21 C-3.64 21 -6.28 21 -9 21 C-8.76925781 20.48953125 -8.53851563 19.9790625 -8.30078125 19.453125 C-5.41399046 13.01774948 -2.6914979 6.5191609 0 0 Z " fill="#D2D1D6" transform="translate(99,179)"/>
<path d="M0 0 C-2.64293799 1.76195866 -4.07189522 2.43021086 -7.03515625 3.18359375 C-7.83598633 3.38726562 -8.63681641 3.5909375 -9.46191406 3.80078125 C-10.7492041 4.11595703 -10.7492041 4.11595703 -12.0625 4.4375 C-12.94776367 4.65921875 -13.83302734 4.8809375 -14.74511719 5.109375 C-20.71750452 6.56366939 -26.66983732 7.62215327 -32.75 8.5 C-38.93932566 9.42806573 -44.42180042 10.4483407 -49 15 C-50.99317643 17.61607721 -50.99317643 17.61607721 -52 20 C-52.75 18.375 -52.75 18.375 -53 16 C-50.65855818 11.67733819 -47.96762024 8.86550351 -44 6 C-44.99 5.34 -45.98 4.68 -47 4 C-46.05125 4.04640625 -45.1025 4.0928125 -44.125 4.140625 C-30.86021551 4.56680947 -11.66144896 -3.49843469 0 0 Z " fill="#272139" transform="translate(201,108)"/>
<path d="M0 0 C1.54977539 0.07927734 1.54977539 0.07927734 3.13085938 0.16015625 C9.13780068 0.48732341 15.0907856 1.02766541 21.0625 1.75 C20.7325 2.74 20.4025 3.73 20.0625 4.75 C14.84807719 4.8929338 9.63364024 5.03533657 4.41918945 5.17724609 C2.64509692 5.22560241 0.87100834 5.27410412 -0.90307617 5.32275391 C-3.45230094 5.39263475 -6.00153945 5.46199361 -8.55078125 5.53125 C-9.34462723 5.55312378 -10.13847321 5.57499756 -10.95637512 5.59753418 C-13.95115561 5.67849896 -16.94146466 5.75 -19.9375 5.75 C-21.9735882 7.02754554 -23.97859119 8.35699818 -25.9375 9.75 C-26.5975 9.42 -27.2575 9.09 -27.9375 8.75 C-26.78120027 7.79974304 -25.61168913 6.86556102 -24.4375 5.9375 C-23.7878125 5.41542969 -23.138125 4.89335938 -22.46875 4.35546875 C-14.90153264 -0.44410893 -8.7184955 -0.5743695 0 0 Z " fill="#BCBAC2" transform="translate(151.9375,93.25)"/>
<path d="M0 0 C0.28875 0.598125 0.5775 1.19625 0.875 1.8125 C2.04742026 4.19327792 2.04742026 4.19327792 4 7 C4.65717657 12.64726308 3.81326144 18.40882762 3 24 C-0.4375 23.1875 -0.4375 23.1875 -4 22 C-5.73596075 16.79211776 -6.26684189 10.07497076 -4.140625 4.9140625 C-2.92543438 3.10888803 -1.53875711 1.53875711 0 0 Z " fill="#1E1932" transform="translate(164,127)"/>
<path d="M0 0 C1.08732422 0.15847412 2.17464844 0.31694824 3.29492188 0.48022461 C8.617012 1.14256774 13.92368978 1.22763602 19.28125 1.31640625 C20.33534058 1.33718735 21.38943115 1.35796844 22.47546387 1.37937927 C25.81691457 1.44435675 29.15843865 1.50351711 32.5 1.5625 C34.77604902 1.60573457 37.05209083 1.64935038 39.328125 1.69335938 C44.88534087 1.79998446 50.44262845 1.90184355 56 2 C56 2.66 56 3.32 56 4 C47.32527735 5.09315611 38.71710706 5.21952604 29.98681641 5.24023438 C27.50519778 5.24997959 25.02439551 5.28110816 22.54296875 5.3125 C14.26274263 5.36604131 6.77317249 5.27421433 -1 2 C-0.67 1.34 -0.34 0.68 0 0 Z " fill="#342F46" transform="translate(92,138)"/>
<path d="M0 0 C4.95 0 9.9 0 15 0 C15 1.65 15 3.3 15 5 C14.34 5 13.68 5 13 5 C13 4.01 13 3.02 13 2 C10.69 2 8.38 2 6 2 C6 4.31 6 6.62 6 9 C8.31 9 10.62 9 13 9 C13 9.66 13 10.32 13 11 C10.69 11 8.38 11 6 11 C6 13.64 6 16.28 6 19 C8.3431213 18.74438677 10.67843403 18.40729228 13 18 C13.33 17.34 13.66 16.68 14 16 C14.66 16 15.32 16 16 16 C16 17.65 16 19.3 16 21 C10.72 21 5.44 21 0 21 C0.66 20.67 1.32 20.34 2 20 C2 13.73 2 7.46 2 1 C1.34 0.67 0.68 0.34 0 0 Z " fill="#DFDEE1" transform="translate(210,179)"/>
<path d="M0 0 C0.66 0.33 1.32 0.66 2 1 C2 2.32 2 3.64 2 5 C1.01 5 0.02 5 -1 5 C-1.33 4.34 -1.66 3.68 -2 3 C-3.32 3 -4.64 3 -6 3 C-6 4.32 -6 5.64 -6 7 C-3.03 8.65 -0.06 10.3 3 12 C3.35555556 17.33333333 3.35555556 17.33333333 2 19.875 C-1.19709287 21.67336474 -4.42380803 21.58113119 -8 21 C-10 19.5 -10 19.5 -11 18 C-10.505 16.515 -10.505 16.515 -10 15 C-9.01 15 -8.02 15 -7 15 C-6.67 15.99 -6.34 16.98 -6 18 C-4.35 18 -2.7 18 -1 18 C-1 16.68 -1 15.36 -1 14 C-2.71183486 12.45918397 -2.71183486 12.45918397 -4.9375 11.3125 C-5.66839844 10.89613281 -6.39929688 10.47976562 -7.15234375 10.05078125 C-7.76207031 9.70402344 -8.37179688 9.35726562 -9 9 C-10 8 -10 8 -10.25 5.0625 C-10.1675 4.051875 -10.085 3.04125 -10 2 C-6.33134759 -0.44576827 -4.32799657 -0.23607254 0 0 Z " fill="#ECECEE" transform="translate(205,179)"/>
<path d="M0 0 C1.051875 -0.00386719 1.051875 -0.00386719 2.125 -0.0078125 C4 0.125 4 0.125 6 1.125 C5.67 2.445 5.34 3.765 5 5.125 C4.34 5.125 3.68 5.125 3 5.125 C2.67 4.465 2.34 3.805 2 3.125 C-0.41645782 2.95812552 -0.41645782 2.95812552 -3 3.125 C-5.17915354 4.89811589 -5.17915354 4.89811589 -5.265625 7.1484375 C-5.26046875 7.92445313 -5.2553125 8.70046875 -5.25 9.5 C-5.25515625 10.27085937 -5.2603125 11.04171875 -5.265625 11.8359375 C-5.08584621 14.52186477 -5.08584621 14.52186477 -3 18.125 C-0.03 17.795 2.94 17.465 6 17.125 C5 20.125 5 20.125 3 21.125 C-0.01079992 21.47050163 -2.09264629 21.69201736 -5 21.125 C-8.24712599 18.48671014 -9.63419615 16.97020524 -10.44140625 12.8984375 C-10.65338056 8.80938461 -10.32854541 6.65067265 -8.125 3.125 C-5.28364542 0.45078393 -3.79646655 -0.0139576 0 0 Z " fill="#E1E0E4" transform="translate(84,178.875)"/>
<path d="M0 0 C1.63038208 -0.00290039 1.63038208 -0.00290039 3.29370117 -0.00585938 C5.04517456 0.0009082 5.04517456 0.0009082 6.83203125 0.0078125 C8.62120972 0.01071289 8.62120972 0.01071289 10.4465332 0.01367188 C22.19342044 0.06950972 33.91454364 0.52606118 45.64453125 1.1328125 C44.65453125 1.4628125 43.66453125 1.7928125 42.64453125 2.1328125 C42.31453125 2.7928125 41.98453125 3.4528125 41.64453125 4.1328125 C40.68160156 3.97941406 39.71867187 3.82601562 38.7265625 3.66796875 C27.55703412 2.07952566 16.0359056 2.05331916 4.76953125 1.8828125 C4.03951904 1.8614624 3.30950684 1.8401123 2.55737305 1.81811523 C-2.23207656 1.7873814 -5.23368444 2.76950683 -9.35546875 5.1328125 C-11.38847538 6.02774926 -13.43022347 6.90310667 -15.48046875 7.7578125 C-17.00027344 8.39589844 -17.00027344 8.39589844 -18.55078125 9.046875 C-20.82617372 9.92787654 -22.97641448 10.62057593 -25.35546875 11.1328125 C-22.64550752 7.88484426 -19.08721167 6.31250785 -15.35546875 4.5078125 C-14.72640625 4.19585937 -14.09734375 3.88390625 -13.44921875 3.5625 C-8.74210407 1.24883346 -5.23492335 0.00613348 0 0 Z " fill="#AEACB5" transform="translate(119.35546875,108.8671875)"/>
<path d="M0 0 C0 2.31 0 4.62 0 7 C-0.99 7.33 -1.98 7.66 -3 8 C-3.33 8.66 -3.66 9.32 -4 10 C-4 9.34 -4 8.68 -4 8 C-5.98 8 -7.96 8 -10 8 C-10 5.03 -10 2.06 -10 -1 C-5.94568308 -2.15837626 -3.78187881 -1.83691257 0 0 Z " fill="#E2E1E4" transform="translate(127,181)"/>
<path d="M0 0 C-0.57344937 2.86724686 -0.8614515 3.8614515 -3 6 C-6.65937559 7.35944093 -10.39162487 7.0982257 -14.25 7.0625 C-15.51328125 7.05347656 -16.7765625 7.04445312 -18.078125 7.03515625 C-19.04234375 7.02355469 -20.0065625 7.01195312 -21 7 C-21 6.34 -21 5.68 -21 5 C-17.11704974 2.06375 -13.58405695 1.40077414 -8.8125 0.8125 C-6.96591797 0.57466797 -6.96591797 0.57466797 -5.08203125 0.33203125 C-2 0 -2 0 0 0 Z " fill="#251F37" transform="translate(146,124)"/>
<path d="M0 0 C3 0.25 3 0.25 5 2.25 C5.25 5.25 5.25 5.25 5 8.25 C3 10.25 3 10.25 0 10.5 C-3 10.25 -3 10.25 -5 8.25 C-5.25 5.25 -5.25 5.25 -5 2.25 C-3 0.25 -3 0.25 0 0 Z " fill="#BAB8C0" transform="translate(136,216.75)"/>
<path d="M0 0 C0 0.66 0 1.32 0 2 C-6 1 -6 1 -8.78125 0.46875 C-12.19513831 -0.0284182 -15.42720666 -0.09768156 -18.875 -0.0625 C-20.02742187 -0.05347656 -21.17984375 -0.04445313 -22.3671875 -0.03515625 C-23.23601562 -0.02355469 -24.10484375 -0.01195313 -25 0 C-24.296875 -1.94921875 -24.296875 -1.94921875 -23 -4 C-14.49042054 -6.52532484 -7.26457015 -4.50403349 0 0 Z " fill="#A2A0AA" transform="translate(199,100)"/>
<path d="M0 0 C6.625 -0.25 6.625 -0.25 10 2 C10.1875 5.125 10.1875 5.125 10 8 C6.696686 8.88935377 3.37705625 9.46274105 0 10 C0 6.7 0 3.4 0 0 Z " fill="#D6D4D9" transform="translate(181,179)"/>
<path d="M0 0 C0.33 0 0.66 0 1 0 C1.31414203 10.31432993 0.38134604 18.63985165 -4 28 C-4.33 27.34 -4.66 26.68 -5 26 C-6.0725 26.350625 -7.145 26.70125 -8.25 27.0625 C-11.78720743 27.94680186 -12.74811124 28.02880551 -16 27 C-14.96939453 26.84917969 -14.96939453 26.84917969 -13.91796875 26.6953125 C-10.99702811 26.08521617 -8.63735476 25.40800714 -6 24 C-2.77714529 18.84537394 -2.62804094 12.17021633 -2.30859375 6.2265625 C-1.9721142 3.79879869 -1.20462061 2.1189712 0 0 Z " fill="#181A34" transform="translate(203,109)"/>
<path d="M0 0 C-11.04505933 7.36337289 -26.2999227 7.79149135 -39 6 C-39 5.67 -39 5.34 -39 5 C-38.1529248 4.88930176 -37.30584961 4.77860352 -36.43310547 4.66455078 C-33.26790765 4.24804317 -30.10347454 3.82622371 -26.93945312 3.40087891 C-25.57417324 3.21843256 -24.20861457 3.03805928 -22.84277344 2.85986328 C-20.87101048 2.60223878 -18.90033302 2.33634965 -16.9296875 2.0703125 C-15.74616699 1.91320801 -14.56264648 1.75610352 -13.34326172 1.59423828 C-1.38243168 -0.53170449 -1.38243168 -0.53170449 0 0 Z " fill="#706D7D" transform="translate(201,108)"/>
<path d="M0 0 C6.0546875 -0.1953125 6.0546875 -0.1953125 8 0 C10 2 10 2 10.25 5 C10 8 10 8 8 10 C5.31160615 10.26991906 2.70858064 10.08737357 0 10 C0.66 9.67 1.32 9.34 2 9 C2 6.36 2 3.72 2 1 C1.34 0.67 0.68 0.34 0 0 Z " fill="#DEDEE1" transform="translate(37,217)"/>
<path d="M0 0 C2.97 0 5.94 0 9 0 C8.34 1.32 7.68 2.64 7 4 C7.79018604 6.43515119 7.79018604 6.43515119 9 9 C9.42573106 11.09449169 9.80000494 13.20003211 10.125 15.3125 C10.29257813 16.38113281 10.46015625 17.44976562 10.6328125 18.55078125 C10.75398437 19.35902344 10.87515625 20.16726562 11 21 C10.01 20.67 9.02 20.34 8 20 C6.90234375 17.41796875 6.90234375 17.41796875 5.9375 14.1875 C4.65811629 9.89438524 4.65811629 9.89438524 2.87890625 5.80078125 C2 4 2 4 2 1 C1.34 0.67 0.68 0.34 0 0 Z " fill="#DAD9DD" transform="translate(137,179)"/>
<path d="M0 0 C0.33 0 0.66 0 1 0 C1 1.65 1 3.3 1 5 C1.66 5.33 2.32 5.66 3 6 C2.78472656 6.57234375 2.56945312 7.1446875 2.34765625 7.734375 C1.88580786 10.74417351 2.74478556 11.77285691 4.4375 14.25 C4.91058594 14.95640625 5.38367188 15.6628125 5.87109375 16.390625 C6.42990234 17.18726563 6.42990234 17.18726563 7 18 C4.8125 18.5 4.8125 18.5 2 18 C0.4610868 16.04575512 -0.70308481 14.03371633 -1.88671875 11.84765625 C-2.87076977 9.84157239 -2.87076977 9.84157239 -5 9 C-5 11.31 -5 13.62 -5 16 C-5.33 16 -5.66 16 -6 16 C-6 13.36 -6 10.72 -6 8 C-4.02 7.34 -2.04 6.68 0 6 C0 4.02 0 2.04 0 0 Z " fill="#D8D7DB" transform="translate(187,182)"/>
<path d="M0 0 C1.32 0 2.64 0 4 0 C4.33 1.98 4.66 3.96 5 6 C4.34 6 3.68 6 3 6 C3.33 7.98 3.66 9.96 4 12 C2.02 12 0.04 12 -2 12 C-3.6442351 7.06729471 -2.18615592 4.45975807 0 0 Z " fill="#E5E4E7" transform="translate(99,179)"/>
<path d="M0 0 C2.31 0 4.62 0 7 0 C7.70074844 3.153368 8 5.72724974 8 9 C8.66 9.33 9.32 9.66 10 10 C9.360625 9.814375 8.72125 9.62875 8.0625 9.4375 C7.0415625 9.2209375 7.0415625 9.2209375 6 9 C5.67 9.33 5.34 9.66 5 10 C3.35 10 1.7 10 0 10 C0 6.7 0 3.4 0 0 Z " fill="#9F9DA7" transform="translate(50,217)"/>
<path d="M0 0 C3.55472722 0.66713879 6.96696588 0.55385972 10.55981445 0.41430664 C11.2852092 0.39069565 12.01060394 0.36708466 12.75798035 0.34275818 C15.06063616 0.26656719 17.36291709 0.18235336 19.6652832 0.09790039 C21.23232253 0.04463498 22.79937982 -0.00810507 24.36645508 -0.06030273 C28.19546569 -0.18898703 32.02416061 -0.32486423 35.8527832 -0.46459961 C35.8527832 0.19540039 35.8527832 0.85540039 35.8527832 1.53540039 C34.95672363 1.54998291 34.06066406 1.56456543 33.13745117 1.57958984 C29.74123295 1.64146249 26.34571875 1.71575031 22.94995117 1.79785156 C21.49367124 1.83065066 20.03727786 1.85881468 18.58081055 1.88183594 C8.62569172 2.04328887 -0.45643578 3.05473675 -10.1472168 5.53540039 C-3.89825545 -0.84347699 -3.89825545 -0.84347699 0 0 Z " fill="#3F3A50" transform="translate(136.147216796875,97.464599609375)"/>
<path d="M0 0 C2.375 0.3125 2.375 0.3125 5 1 C5.66 1.99 6.32 2.98 7 4 C7 2.68 7 1.36 7 0 C8.32 0.33 9.64 0.66 11 1 C10.67 3.97 10.34 6.94 10 10 C6 8 6 8 5 6 C5 7.32 5 8.64 5 10 C3.35 10 1.7 10 0 10 C0.66 9.67 1.32 9.34 2 9 C2 6.36 2 3.72 2 1 C1.34 0.67 0.68 0.34 0 0 Z " fill="#D2D1D6" transform="translate(106,217)"/>
<path d="M0 0 C1.32 0 2.64 0 4 0 C5.75 2.5 5.75 2.5 7 5 C7.33 3.68 7.66 2.36 8 1 C7.34 0.67 6.68 0.34 6 0 C7.65 0 9.3 0 11 0 C10.01 0.495 10.01 0.495 9 1 C9 3.97 9 6.94 9 10 C8.34 10 7.68 10 7 10 C5.375 7.5 5.375 7.5 4 5 C4 6.65 4 8.3 4 10 C2.68 9.67 1.36 9.34 0 9 C0 6.03 0 3.06 0 0 Z " fill="#DFDEE2" transform="translate(229,217)"/>
<path d="M0 0 C1.28006797 1.78398614 2.47660351 3.62853906 3.625 5.5 C4.25664063 6.5209375 4.88828125 7.541875 5.5390625 8.59375 C6.02117187 9.3878125 6.50328125 10.181875 7 11 C4.66796875 11.24609375 4.66796875 11.24609375 2 11 C0.48828125 9.28515625 0.48828125 9.28515625 -0.6875 7.0625 C-2.24016627 3.92600554 -2.24016627 3.92600554 -5 2 C-5 4.31 -5 6.62 -5 9 C-5.33 9 -5.66 9 -6 9 C-6 6.36 -6 3.72 -6 1 C-3.92446352 0.4465236 -2.15634036 0 0 0 Z " fill="#E2E1E4" transform="translate(123,189)"/>
<path d="M0 0 C2.97 0 5.94 0 9 0 C8.01 1.485 8.01 1.485 7 3 C7.15760028 6.11304814 7.15760028 6.11304814 8 9 C8.66 9.33 9.32 9.66 10 10 C8.33388095 10.042721 6.66617115 10.04063832 5 10 C4.67 9.67 4.34 9.34 4 9 C1.94603274 9.40929986 1.94603274 9.40929986 0 10 C0.66 9.01 1.32 8.02 2 7 C1.67873872 4.36565746 1.18644952 2.37289903 0 0 Z " fill="#C6C5CB" transform="translate(161,217)"/>
<path d="M0 0 C1.47057839 0.00031709 2.94118001 0.01164091 4.41162109 0.03173828 C5.18565277 0.03456818 5.95968445 0.03739807 6.75717163 0.04031372 C9.23329016 0.05152325 11.70904909 0.07662875 14.18505859 0.10205078 C15.86213671 0.1120796 17.53922049 0.12120562 19.21630859 0.12939453 C23.33103082 0.15146504 27.44548371 0.18599977 31.56005859 0.22705078 C31.23005859 1.21705078 30.90005859 2.20705078 30.56005859 3.22705078 C28.58005859 3.22705078 26.60005859 3.22705078 24.56005859 3.22705078 C24.56005859 2.56705078 24.56005859 1.90705078 24.56005859 1.22705078 C14.66005859 1.55705078 4.76005859 1.88705078 -5.43994141 2.22705078 C-3.43994141 0.22705078 -3.43994141 0.22705078 0 0 Z " fill="#888592" transform="translate(141.43994140625,94.77294921875)"/>
<path d="M0 0 C2 4 2 4 1.1015625 7.671875 C0.62455367 9.03665026 0.13178976 10.39600109 -0.375 11.75 C-0.6225 12.44738281 -0.87 13.14476562 -1.125 13.86328125 C-1.73656427 15.58036556 -2.36652005 17.2908796 -3 19 C-5.12508244 15.81237635 -5.5020163 13.73487777 -6 10 C-5.01 10.495 -5.01 10.495 -4 11 C-2.68 7.37 -1.36 3.74 0 0 Z " fill="#C2C1C8" transform="translate(152,181)"/>
<path d="M0 0 C6.64409958 -0.21432579 12.53205867 0.48766299 19 2 C19 2.33 19 2.66 19 3 C10.585 3.495 10.585 3.495 2 4 C2 4.99 2 5.98 2 7 C1.01 6.67 0.02 6.34 -1 6 C-0.34 6 0.32 6 1 6 C0.67 4.02 0.34 2.04 0 0 Z " fill="#D0CFD4" transform="translate(95,124)"/>
<path d="M0 0 C2.64 0 5.28 0 8 0 C8 0.66 8 1.32 8 2 C6.68 1.67 5.36 1.34 4 1 C4 1.99 4 2.98 4 4 C4.99 4.33 5.98 4.66 7 5 C6.01 5 5.02 5 4 5 C4 6.32 4 7.64 4 9 C5.32 8.67 6.64 8.34 8 8 C8 8.66 8 9.32 8 10 C5.36 10 2.72 10 0 10 C0 6.7 0 3.4 0 0 Z " fill="#D1D0D5" transform="translate(218,217)"/>
<path d="M0 0 C2.64 0 5.28 0 8 0 C8 0.66 8 1.32 8 2 C6.68 1.67 5.36 1.34 4 1 C4 1.99 4 2.98 4 4 C4.99 4.33 5.98 4.66 7 5 C6.01 5 5.02 5 4 5 C4 6.32 4 7.64 4 9 C5.32 8.67 6.64 8.34 8 8 C8 8.66 8 9.32 8 10 C5.36 10 2.72 10 0 10 C0 6.7 0 3.4 0 0 Z " fill="#D0CFD4" transform="translate(184,217)"/>
<path d="M0 0 C2.64 0 5.28 0 8 0 C8 0.66 8 1.32 8 2 C6.68 1.67 5.36 1.34 4 1 C4 1.99 4 2.98 4 4 C4.99 4.33 5.98 4.66 7 5 C6.01 5 5.02 5 4 5 C4 6.32 4 7.64 4 9 C5.32 8.67 6.64 8.34 8 8 C8 8.66 8 9.32 8 10 C5.36 10 2.72 10 0 10 C0 6.7 0 3.4 0 0 Z " fill="#D1D0D5" transform="translate(150,217)"/>
<path d="M0 0 C1.65 0 3.3 0 5 0 C5 1.32 5 2.64 5 4 C5.33 2.68 5.66 1.36 6 0 C7.32 0.33 8.64 0.66 10 1 C8.68 3.97 7.36 6.94 6 10 C5.34 10 4.68 10 4 10 C2.68 6.7 1.36 3.4 0 0 Z " fill="#D1CFD4" transform="translate(69,217)"/>
<path d="M0 0 C0.226875 0.61875 0.45375 1.2375 0.6875 1.875 C1.8440732 4.23244106 1.8440732 4.23244106 4.5 4.9375 C7 6 7 6 8.3125 8.625 C8.6528125 9.800625 8.6528125 9.800625 9 11 C8.01 11.33 7.02 11.66 6 12 C5.38125 11.2884375 5.38125 11.2884375 4.75 10.5625 C3.10921183 8.84723373 3.10921183 8.84723373 0.875 8.5 C0.25625 8.335 -0.3625 8.17 -1 8 C-2.2077558 4.37673261 -1.54311128 3.35853631 0 0 Z " fill="#0E415C" transform="translate(100,101)"/>
<path d="M0 0 C-3.75772892 3.30224663 -7.40642557 5.07905069 -12 7 C-14.33878876 8.56328365 -14.33878876 8.56328365 -16 10 C-14.64844718 5.57673622 -12.80109562 3.59587018 -9 1 C-5.8035914 -0.06546953 -3.34252724 -0.07427838 0 0 Z " fill="#C0BEC5" transform="translate(127,112)"/>
<path d="M0 0 C0.33 0.99 0.66 1.98 1 3 C3.64 3 6.28 3 9 3 C9 3.33 9 3.66 9 4 C6.36 4 3.72 4 1 4 C1 5.98 1 7.96 1 10 C1.66 10.33 2.32 10.66 3 11 C0.36 11 -2.28 11 -5 11 C-4.35474023 9.5414128 -3.7087728 8.08313863 -3.0625 6.625 C-2.70285156 5.81289062 -2.34320313 5.00078125 -1.97265625 4.1640625 C-1.3430097 2.76316215 -0.68687358 1.37374716 0 0 Z " fill="#B0AFB7" transform="translate(95,189)"/>
<path d="M0 0 C0.94875 0.04125 1.8975 0.0825 2.875 0.125 C2.875 1.115 2.875 2.105 2.875 3.125 C2.215 3.125 1.555 3.125 0.875 3.125 C0.875 2.465 0.875 1.805 0.875 1.125 C-0.115 1.62 -0.115 1.62 -1.125 2.125 C-1.125 4.105 -1.125 6.085 -1.125 8.125 C0.195 8.125 1.515 8.125 2.875 8.125 C2.875 8.785 2.875 9.445 2.875 10.125 C0 10.25 0 10.25 -3.125 10.125 C-5.125 8.125 -5.125 8.125 -5.375 5.125 C-5.02345647 0.90647769 -4.22997422 0.16919897 0 0 Z " fill="#C1BFC6" transform="translate(178.125,216.875)"/>
<path d="M0 0 C0.66 0.33 1.32 0.66 2 1 C2 2.32 2 3.64 2 5 C1.01 5 0.02 5 -1 5 C-1.33 4.34 -1.66 3.68 -2 3 C-3.32 3 -4.64 3 -6 3 C-7.71711243 5.44496043 -7.71711243 5.44496043 -9 8 C-9.33 8 -9.66 8 -10 8 C-10.1875 5.125 -10.1875 5.125 -10 2 C-6.33134759 -0.44576827 -4.32799657 -0.23607254 0 0 Z " fill="#DDDCDF" transform="translate(205,179)"/>
<path d="M0 0 C2.64 0 5.28 0 8 0 C7.67 0.66 7.34 1.32 7 2 C6.01 1.67 5.02 1.34 4 1 C4 1.99 4 2.98 4 4 C4.99 4.33 5.98 4.66 7 5 C6.01 5 5.02 5 4 5 C4 6.32 4 7.64 4 9 C5.65 8.67 7.3 8.34 9 8 C9 8.66 9 9.32 9 10 C6.03 10 3.06 10 0 10 C0.66 9.67 1.32 9.34 2 9 C2 6.36 2 3.72 2 1 C1.34 0.67 0.68 0.34 0 0 Z " fill="#E3E3E5" transform="translate(81,217)"/>
<path d="M0 0 C2.31 0 4.62 0 7 0 C6.67 0.66 6.34 1.32 6 2 C5.01 1.67 4.02 1.34 3 1 C3 1.99 3 2.98 3 4 C4.32 4.33 5.64 4.66 7 5 C5.68 5 4.36 5 3 5 C3 6.32 3 7.64 3 9 C4.65 8.67 6.3 8.34 8 8 C8 8.66 8 9.32 8 10 C5.36 10 2.72 10 0 10 C0 6.7 0 3.4 0 0 Z " fill="#E6E5E8" transform="translate(254,217)"/>
<path d="M0 0 C1.65 0 3.3 0 5 0 C5 2.31 5 4.62 5 7 C3.35 7.33 1.7 7.66 0 8 C0 5.36 0 2.72 0 0 Z " fill="#100A25" transform="translate(118,181)"/>
<path d="M0 0 C2.475 0.495 2.475 0.495 5 1 C5 2.98 5 4.96 5 7 C3.35 7.33 1.7 7.66 0 8 C0 5.36 0 2.72 0 0 Z " fill="#110B25" transform="translate(182,181)"/>
<path d="M0 0 C-0.33 0.99 -0.66 1.98 -1 3 C-1 2.34 -1 1.68 -1 1 C-1.969375 1.33 -2.93875 1.66 -3.9375 2 C-8.29766837 3.26873752 -12.49554566 3.18385528 -17 3 C-17.33 2.34 -17.66 1.68 -18 1 C-15.75152519 0.63627613 -13.50113812 0.28435904 -11.25 -0.0625 C-9.99703125 -0.25972656 -8.7440625 -0.45695312 -7.453125 -0.66015625 C-4.49983411 -0.95080818 -2.7397586 -0.98935727 0 0 Z " fill="#73707F" transform="translate(147,123)"/>
<path d="M0 0 C0.66 1.32 1.32 2.64 2 4 C1.071875 4.556875 0.14375 5.11375 -0.8125 5.6875 C-3.9419407 7.95787855 -5.29754051 9.59508103 -7 13 C-7.75 11.375 -7.75 11.375 -8 9 C-5.87041883 5.13520454 -3.71913491 2.39087244 0 0 Z " fill="#3D394E" transform="translate(156,115)"/>
<path d="M0 0 C0.99 0.33 1.98 0.66 3 1 C2.01 3.97 1.02 6.94 0 10 C-0.33 9.34 -0.66 8.68 -1 8 C-2.0725 8.350625 -3.145 8.70125 -4.25 9.0625 C-7.78720743 9.94680186 -8.74811124 10.02880551 -12 9 C-10.95199219 8.77957031 -10.95199219 8.77957031 -9.8828125 8.5546875 C-7.12149286 7.87413563 -4.59363365 7.17228806 -2 6 C-0.23902514 2.98226415 -0.23902514 2.98226415 0 0 Z " fill="#35384E" transform="translate(199,127)"/>
<path d="M0 0 C0.66 0 1.32 0 2 0 C2.67260351 1.76858691 3.33788395 3.53996016 4 5.3125 C4.37125 6.29863281 4.7425 7.28476563 5.125 8.30078125 C6 11 6 11 6 14 C5.01 13.67 4.02 13.34 3 13 C2.05078125 11.07421875 2.05078125 11.07421875 1.3125 8.6875 C0.93544922 7.51767578 0.93544922 7.51767578 0.55078125 6.32421875 C0 4 0 4 0 0 Z " fill="#F3F3F4" transform="translate(142,186)"/>
<path d="M0 0 C0.66 0.33 1.32 0.66 2 1 C-2.29 5.29 -6.58 9.58 -11 14 C-11 10.30159372 -10.17133056 9.68584567 -7.75 7 C-7.14671875 6.319375 -6.5434375 5.63875 -5.921875 4.9375 C-4.06233388 3.06284066 -2.15205789 1.52358081 0 0 Z " fill="#04A9C5" transform="translate(133,76)"/>
<path d="M0 0 C1.65 0 3.3 0 5 0 C5 3.3 5 6.6 5 10 C3.35 10 1.7 10 0 10 C0 6.7 0 3.4 0 0 Z " fill="#C5C3CA" transform="translate(99,217)"/>
<path d="M0 0 C1.65 0 3.3 0 5 0 C5 3.3 5 6.6 5 10 C3.35 10 1.7 10 0 10 C0 6.7 0 3.4 0 0 Z " fill="#C5C3CA" transform="translate(62,217)"/>
<path d="M0 0 C0 0.66 0 1.32 0 2 C-5.31329355 4.08989546 -9.28728072 5.6112798 -15 4 C-12.3851183 2.25674553 -10.9946567 1.58412043 -8.0625 0.875 C-7.39347656 0.70742187 -6.72445312 0.53984375 -6.03515625 0.3671875 C-4 0 -4 0 0 0 Z " fill="#BBB9C1" transform="translate(200,105)"/>
<path d="M0 0 C-2.72106694 2.72106694 -4.84776311 2.60655572 -8.625 3.125 C-10.40777344 3.37636719 -10.40777344 3.37636719 -12.2265625 3.6328125 C-13.14179688 3.75398438 -14.05703125 3.87515625 -15 4 C-14.30859375 2.05078125 -14.30859375 2.05078125 -13 0 C-10.72265625 -0.64453125 -10.72265625 -0.64453125 -8.0625 -0.8125 C-6.74958984 -0.91498047 -6.74958984 -0.91498047 -5.41015625 -1.01953125 C-3 -1 -3 -1 0 0 Z " fill="#BDBCC3" transform="translate(189,96)"/>
<path d="M0 0 C1.20366211 0.00483398 1.20366211 0.00483398 2.43164062 0.00976562 C3.68170898 0.02233398 3.68170898 0.02233398 4.95703125 0.03515625 C5.80201172 0.03966797 6.64699219 0.04417969 7.51757812 0.04882812 C9.6015928 0.06060222 11.68557102 0.07853735 13.76953125 0.09765625 C12.77953125 0.42765625 11.78953125 0.75765625 10.76953125 1.09765625 C10.76953125 1.75765625 10.76953125 2.41765625 10.76953125 3.09765625 C8.51924796 2.95626144 6.26930919 2.80937622 4.01953125 2.66015625 C2.14007813 2.53833984 2.14007813 2.53833984 0.22265625 2.4140625 C-2.41364428 2.17250103 -4.71084169 1.85481691 -7.23046875 1.09765625 C-4.46481493 0.17577164 -2.84763173 -0.02019597 0 0 Z " fill="#595467" transform="translate(120.23046875,109.90234375)"/>
<path d="M0 0 C0.99 0 1.98 0 3 0 C3.33 0.99 3.66 1.98 4 3 C7.00847418 4.22520264 7.00847418 4.22520264 10 5 C10 5.33 10 5.66 10 6 C2.49230769 6.36923077 2.49230769 6.36923077 0 4.5 C-0.33 4.005 -0.66 3.51 -1 3 C-0.67 2.01 -0.34 1.02 0 0 Z " fill="#D0CFD4" transform="translate(195,194)"/>
<path d="M0 0 C7.425 0.99 7.425 0.99 15 2 C15 2.33 15 2.66 15 3 C13.27277272 3.22384382 11.54303993 3.42839969 9.8125 3.625 C8.36810547 3.79902344 8.36810547 3.79902344 6.89453125 3.9765625 C3.75924677 4.00194942 1.80513465 3.34359283 -1 2 C-0.67 1.34 -0.34 0.68 0 0 Z " fill="#39344A" transform="translate(92,138)"/>
<path d="M0 0 C5.28 0.33 10.56 0.66 16 1 C14 3 14 3 11.50390625 3.23046875 C10.53324219 3.21628906 9.56257813 3.20210937 8.5625 3.1875 C7.11037109 3.17783203 7.11037109 3.17783203 5.62890625 3.16796875 C3 3 3 3 0 2 C0 1.34 0 0.68 0 0 Z " fill="#262038" transform="translate(100,127)"/>
<path d="M0 0 C0.66 0.33 1.32 0.66 2 1 C1.401875 1.721875 0.80375 2.44375 0.1875 3.1875 C-2.04081897 5.90416417 -2.04081897 5.90416417 -3.5625 8.8125 C-4.036875 9.534375 -4.51125 10.25625 -5 11 C-5.99 11 -6.98 11 -8 11 C-7.525625 10.566875 -7.05125 10.13375 -6.5625 9.6875 C-4.76313043 7.97690387 -4.76313043 7.97690387 -4 5 C-4.99 4.67 -5.98 4.34 -7 4 C-1.7265625 0.77734375 -1.7265625 0.77734375 0 0 Z " fill="#C2C1C7" transform="translate(151,118)"/>
<path d="M0 0 C3 1 3 1 4 3 C4.203125 5.05859375 4.203125 5.05859375 4.25 7.4375 C4.27578125 8.21996094 4.3015625 9.00242188 4.328125 9.80859375 C3.92823089 12.47931509 3.05300878 13.31977439 1 15 C1.01160156 14.16855469 1.02320313 13.33710938 1.03515625 12.48046875 C1.04417969 11.39378906 1.05320313 10.30710938 1.0625 9.1875 C1.07410156 8.10855469 1.08570313 7.02960938 1.09765625 5.91796875 C1.13624766 2.93487831 1.13624766 2.93487831 0 0 Z " fill="#D2D1D6" transform="translate(164,131)"/>
<path d="M0 0 C0.99 0.33 1.98 0.66 3 1 C3 3.31 3 5.62 3 8 C1.68 7.67 0.36 7.34 -1 7 C-1.04254356 5.00045254 -1.04080783 2.99958364 -1 1 C-0.67 0.67 -0.34 0.34 0 0 Z " fill="#0F0923" transform="translate(135,218)"/>
<path d="M0 0 C0.99 0 1.98 0 3 0 C3.33 2.31 3.66 4.62 4 7 C2.68 7.33 1.36 7.66 0 8 C0 5.36 0 2.72 0 0 Z " fill="#211C34" transform="translate(41,218)"/>
<path d="M0 0 C0 1.65 0 3.3 0 5 C-0.99 5 -1.98 5 -3 5 C-3 4.01 -3 3.02 -3 2 C-4.98 2 -6.96 2 -9 2 C-9 4.31 -9 6.62 -9 9 C-9.33 9 -9.66 9 -10 9 C-10 6.36 -10 3.72 -10 1 C-3.375 0 -3.375 0 0 0 Z " fill="#BBB9C1" transform="translate(173,179)"/>
<path d="M0 0 C0.33 0.99 0.66 1.98 1 3 C3.50447516 4.21869929 3.50447516 4.21869929 6 5 C6 5.66 6 6.32 6 7 C6.66 7.33 7.32 7.66 8 8 C7.360625 7.814375 6.72125 7.62875 6.0625 7.4375 C5.0415625 7.2209375 5.0415625 7.2209375 4 7 C3.67 7.33 3.34 7.66 3 8 C1.33382885 8.04063832 -0.33388095 8.042721 -2 8 C-1.34 7.67 -0.68 7.34 0 7 C0 4.69 0 2.38 0 0 Z " fill="#DDDCE0" transform="translate(52,219)"/>
<path d="M0 0 C-4.9748792 3.31658613 -11.03568353 4.38479461 -17 4 C-14.23719462 2.15812975 -12.19292174 1.27751723 -9.0625 0.3125 C-7.78052734 -0.09548828 -7.78052734 -0.09548828 -6.47265625 -0.51171875 C-3.89489426 -1.02075548 -2.45550663 -0.84888744 0 0 Z " fill="#4F4B5E" transform="translate(201,108)"/>
<path d="M0 0 C0.66 0 1.32 0 2 0 C2.8723412 2.99480917 3.10829766 5.63575911 3.0625 8.75 C3.05347656 9.54921875 3.04445312 10.3484375 3.03515625 11.171875 C3.01775391 12.07679687 3.01775391 12.07679687 3 13 C2.34 12.67 1.68 12.34 1 12 C-0.17169312 8.01624339 -0.08089427 4.12560776 0 0 Z " fill="#10102A" transform="translate(200,101)"/>
<path d="M0 0 C-1.4502273 2.90045459 -3.29728825 3.01216796 -6.3125 4.0625 C-7.27800781 4.40410156 -8.24351563 4.74570313 -9.23828125 5.09765625 C-11.48431891 5.83151014 -13.69927128 6.46990336 -16 7 C-11.86686571 2.52029854 -6.24478666 -0.78059833 0 0 Z " fill="#84818F" transform="translate(110,113)"/>
<path d="M0 0 C5.61 0.33 11.22 0.66 17 1 C17 1.33 17 1.66 17 2 C16.28972656 2.04898438 15.57945312 2.09796875 14.84765625 2.1484375 C13.46900391 2.26058594 13.46900391 2.26058594 12.0625 2.375 C11.14597656 2.44460937 10.22945312 2.51421875 9.28515625 2.5859375 C8.15400391 2.79089844 8.15400391 2.79089844 7 3 C6.67 3.66 6.34 4.32 6 5 C5.34 5 4.68 5 4 5 C4 3.68 4 2.36 4 1 C2.68 0.67 1.36 0.34 0 0 Z " fill="#F9F9FA" transform="translate(169,94)"/>
<path d="M0 0 C0.66 0.33 1.32 0.66 2 1 C-1.3 4.3 -4.6 7.6 -8 11 C-8.66 10.67 -9.32 10.34 -10 10 C-6.92118304 6.12948725 -3.99926986 2.97088618 0 0 Z " fill="#0A2944" transform="translate(137,80)"/>
<path d="M0 0 C0.33 0 0.66 0 1 0 C1 2.31 1 4.62 1 7 C0.01 7.33 -0.98 7.66 -2 8 C-2.33 8.66 -2.66 9.32 -3 10 C-3 9.34 -3 8.68 -3 8 C-3.66 7.67 -4.32 7.34 -5 7 C-4.34 7 -3.68 7 -3 7 C-3 5.02 -3 3.04 -3 1 C-2.34 1.99 -1.68 2.98 -1 4 C-0.67 2.68 -0.34 1.36 0 0 Z " fill="#C9C8CE" transform="translate(126,181)"/>
<path d="M0 0 C1.125 1.5625 1.125 1.5625 2 4 C1.125 7.75 1.125 7.75 0 11 C-0.66 11 -1.32 11 -2 11 C-1.85892253 9.54119891 -1.71197585 8.08296449 -1.5625 6.625 C-1.48128906 5.81289062 -1.40007812 5.00078125 -1.31640625 4.1640625 C-1 2 -1 2 0 0 Z " fill="#D0CFD4" transform="translate(152,181)"/>
<path d="M0 0 C4.95 0.99 4.95 0.99 10 2 C9.01 3.485 9.01 3.485 8 5 C5.125 4.75 5.125 4.75 2 4 C1.34 2.68 0.68 1.36 0 0 Z " fill="#CECDD2" transform="translate(91,140)"/>
<path d="M0 0 C0.66 0.33 1.32 0.66 2 1 C1.67 1.99 1.34 2.98 1 4 C-1.06640625 4.73046875 -1.06640625 4.73046875 -3.5625 5.1875 C-4.38878906 5.34605469 -5.21507812 5.50460938 -6.06640625 5.66796875 C-7.02353516 5.83232422 -7.02353516 5.83232422 -8 6 C-5.54080489 3.3651481 -3.42227589 1.25483449 0 0 Z " fill="#666273" transform="translate(134,97)"/>
<path d="M0 0 C0.66 0 1.32 0 2 0 C2.38133299 1.9914056 2.71325582 3.99279077 3 6 C2 7 2 7 0.15234375 7.09765625 C-1.8984375 7.06510417 -3.94921875 7.03255208 -6 7 C-5.67 6.01 -5.34 5.02 -5 4 C-5 4.66 -5 5.32 -5 6 C-3.02 6 -1.04 6 1 6 C0.67 4.02 0.34 2.04 0 0 Z " fill="#F9F9FA" transform="translate(102,185)"/>
<path d="M0 0 C0.99 0.33 1.98 0.66 3 1 C3.33 2.65 3.66 4.3 4 6 C2.35 6 0.7 6 -1 6 C-0.67 4.02 -0.34 2.04 0 0 Z " fill="#2F2A41" transform="translate(99,185)"/>
<path d="M0 0 C1.32 0.33 2.64 0.66 4 1 C3.01 3.31 2.02 5.62 1 8 C0.34 8 -0.32 8 -1 8 C-1.33 6.68 -1.66 5.36 -2 4 C-1.34 3.67 -0.68 3.34 0 3 C0 2.01 0 1.02 0 0 Z " fill="#B3B1B9" transform="translate(75,217)"/>
<path d="M0 0 C0.33 0.99 0.66 1.98 1 3 C1.66 3 2.32 3 3 3 C3 3.66 3 4.32 3 5 C2.34 5 1.68 5 1 5 C0.67 6.98 0.34 8.96 0 11 C-0.66 10.34 -1.32 9.68 -2 9 C-1.7578125 6.8359375 -1.7578125 6.8359375 -1.125 4.375 C-0.92132813 3.55773437 -0.71765625 2.74046875 -0.5078125 1.8984375 C-0.34023437 1.27195313 -0.17265625 0.64546875 0 0 Z " fill="#BCBAC2" transform="translate(98,180)"/>
<path d="M0 0 C1.76462683 3.08809695 2 4.23312136 2 8 C1.01 8 0.02 8 -1 8 C-2.2077558 4.37673261 -1.54311128 3.35853631 0 0 Z " fill="#05A1BD" transform="translate(100,101)"/>
<path d="M0 0 C0.66 0 1.32 0 2 0 C0.125 5.75 0.125 5.75 -1 8 C-1.66 8 -2.32 8 -3 8 C-2.25 2.25 -2.25 2.25 0 0 Z " fill="#2E2940" transform="translate(174,100)"/>
<path d="M0 0 C1.5 1.125 1.5 1.125 3 3 C3.1875 6.1875 3.1875 6.1875 3 9 C1.68 8.67 0.36 8.34 -1 8 C-0.67 5.36 -0.34 2.72 0 0 Z " fill="#B6B4BC" transform="translate(230,218)"/>
<path d="M0 0 C0.66 0 1.32 0 2 0 C3 6.875 3 6.875 3 8 C1.35 8 -0.3 8 -2 8 C-1.34 7.67 -0.68 7.34 0 7 C0 4.69 0 2.38 0 0 Z " fill="#B2B0B8" transform="translate(108,219)"/>
<path d="M0 0 C-1 3 -1 3 -3 4 C-4.99960012 4.039992 -7.00047242 4.04346799 -9 4 C-9 3.34 -9 2.68 -9 2 C-2.25 0 -2.25 0 0 0 Z " fill="#E8E7EA" transform="translate(90,196)"/>
<path d="M0 0 C3.875 1.75 3.875 1.75 5 4 C2.36 4 -0.28 4 -3 4 C-3 3.34 -3 2.68 -3 2 C-2.01 2 -1.02 2 0 2 C0 1.34 0 0.68 0 0 Z " fill="#EAEAEC" transform="translate(106,196)"/>
<path d="M0 0 C1.32 1.65 2.64 3.3 4 5 C1.36 5 -1.28 5 -4 5 C-2.68 3.35 -1.36 1.7 0 0 Z " fill="#E4E3E6" transform="translate(94,195)"/>
<path d="M0 0 C0 1.32 0 2.64 0 4 C-0.99 4 -1.98 4 -3 4 C-3.33 3.34 -3.66 2.68 -4 2 C-4.99 1.34 -5.98 0.68 -7 0 C-3.86650268 -1.04449911 -3.01031744 -0.93423645 0 0 Z " fill="#D5D4D9" transform="translate(207,180)"/>
<path d="M0 0 C0.33 0 0.66 0 1 0 C1 3.96 1 7.92 1 12 C0.67 10.68 0.34 9.36 0 8 C-0.66 8 -1.32 8 -2 8 C-1.33333333 5.33333333 -0.66666667 2.66666667 0 0 Z " fill="#142641" transform="translate(203,109)"/>
<path d="M0 0 C-1.65 1.32 -3.3 2.64 -5 4 C-6.32 3.34 -7.64 2.68 -9 2 C-5.5647952 -0.29013653 -4.014669 -0.17842973 0 0 Z " fill="#9B98A3" transform="translate(127,112)"/>
<path d="M0 0 C0.66 0.66 1.32 1.32 2 2 C1.625 5.625 1.625 5.625 1 9 C0.01 8.67 -0.98 8.34 -2 8 C-2 7.34 -2 6.68 -2 6 C-1.34 6 -0.68 6 0 6 C-0.33 5.01 -0.66 4.02 -1 3 C-0.67 2.01 -0.34 1.02 0 0 Z " fill="#203049" transform="translate(199,96)"/>
<path d="M0 0 C0.99 0.66 1.98 1.32 3 2 C2.34 3.32 1.68 4.64 1 6 C0.01 5.34 -0.98 4.68 -2 4 C-1.34 2.68 -0.68 1.36 0 0 Z " fill="#04A7C3" transform="translate(114,79)"/>
<path d="M0 0 C0.99 0 1.98 0 3 0 C3 1.65 3 3.3 3 5 C1.68 5 0.36 5 -1 5 C-0.67 3.35 -0.34 1.7 0 0 Z " fill="#D0CFD4" transform="translate(171,195)"/>
<path d="M0 0 C-0.33 0.99 -0.66 1.98 -1 3 C-2.98 3 -4.96 3 -7 3 C-7 2.34 -7 1.68 -7 1 C-4 0 -4 0 0 0 Z " fill="#9997A2" transform="translate(173,95)"/>
</svg>
